<svg width="0" height="0" class="hidden">
  <symbol version="1.0" xmlns="http://www.w3.org/2000/svg" viewBox="0 0 512 512" id="icon-cart">
    <path d="M23 14.9C5.5 18.5.3 39 14.1 50.2c5 4 11.1 4.8 37.5 4.8 12.9 0 23.4.3 23.4.6 0 1.3 76.2 317.8 77.1 320.2 1.5 3.9 5.8 8.2 10.4 10.3 3.8 1.8 9.8 1.9 140.6 1.9h136.5l5.1-2.5c6.5-3.3 10.4-8.8 11.1-15.5.6-6.8-3.2-14.6-9.1-18.6l-4.2-2.9-128.1-.3-128.2-.2-2.5-10-2.5-10h256.4l4.4-2.2c2.4-1.3 5.2-3.4 6.2-4.8 2.8-3.9 53.2-211.2 52.4-215.5-.4-1.9-1.8-4.8-3.3-6.5-5.4-6.5 9.5-6-190.2-6h-182l-1-3.8c-.5-2-4-16.3-7.6-31.7-3.7-15.4-7.6-29.9-8.6-32.1-2.5-5.3-7.9-9.1-14.8-10.4-6-1.1-64.6-1.2-70.1-.1zm276.1 130.3c7 3.9 7.9 7.3 7.9 30.1v19.6l20.9.3c19.5.3 21.2.4 23.8 2.4 6.4 4.8 8.7 14.8 4.6 20.2-4.9 6.5-5.5 6.7-28.3 7l-20.9.3-.3 20.9c-.3 19.4-.4 21.1-2.4 23.7-5.2 6.9-14.7 8.6-21.1 3.8-5.7-4.5-6.3-7-6.3-29V225h-20.4c-19.4 0-20.4-.1-23.6-2.3-7.6-5.1-9.9-12.6-5.9-19.6 4-7.2 7.3-8.1 30.2-8.1H277v-20c0-21.4.3-23.2 5.2-27.7 5-4.7 11-5.4 16.9-2.1zM203 399.4c-20.8 5.9-35 24.3-35.2 45.5 0 9.1 1.3 14.6 5.5 22.6 6 11.2 16.9 19.8 29.2 23.1 7.7 2.1 20.5 1.8 27.7-.7 22.7-7.6 36.4-33 30.3-56.4-4.2-16-17.2-29.1-33.4-33.9-6.4-1.9-17.7-1.9-24.1-.2zm174.1.1c-16.7 4.7-29 17.5-33.6 35.1-3.8 14.6.3 30.2 10.9 42.1 10.3 11.4 21.5 15.8 38.1 15.1 9.2-.4 11.1-.8 17.2-3.8 18-8.9 29-29.3 26.3-48.9-2.2-15.9-11.7-28.9-26.6-36.2-7.6-3.8-9.1-4.2-17.6-4.5-6.3-.3-11.1.1-14.7 1.1z"></path>
  </symbol>
  <symbol version="1.0" xmlns="http://www.w3.org/2000/svg" viewBox="0 0 225 225" id="icon-cross">
    <path d="M30.5.9C23.5 2.7 17.1 8 13.4 15c-2.6 5-2.6 17.2.1 22.2 1.1 2 15.5 19.1 32 37.9 16.5 18.8 30.6 35 31.2 36 1.1 1.4-2.8 6.3-29.8 37-17 19.5-32 37.2-33.2 39.4-2.9 5.3-3.1 17.3-.3 22.5 5 9.5 12.7 14.3 23.1 14.4 12.2.1 12.4 0 46-38.5 16.4-18.6 29.9-33.9 30-33.9.1 0 13.6 15.3 30 33.9 33.6 38.5 33.8 38.6 46 38.5 10.4-.1 18.1-4.9 23.1-14.4 2.6-5 2.6-17.2-.1-22.2-1.1-2-15.5-19.1-32-37.9-16.5-18.8-30.6-35-31.2-36-1.1-1.4 2.8-6.3 29.8-37 17-19.5 32-37.2 33.2-39.4 2.9-5.3 3.1-17.3.3-22.5-5-9.5-12.7-14.3-23.1-14.4-12.2-.1-12.4 0-46 38.5-16.4 18.6-29.9 33.9-30 33.9-.1 0-13.6-15.3-30-33.9C59.1 12.3 51.9 4.7 48.5 3 43.6.6 35.2-.3 30.5.9z"></path>
  </symbol>
  <symbol version="1.0" xmlns="http://www.w3.org/2000/svg" viewBox="0 0 512 512" id="icon-menu">
    <path d="M35 27.3C17.6 33.2 5.9 45.8 1.6 63.1c-4 16.5.6 32.9 12.9 45.4 6.4 6.5 12.1 10.2 20.7 13.2 5.1 1.7 13.9 1.8 220.8 1.8s215.7-.1 220.8-1.8c8.6-3 14.3-6.7 20.7-13.2 12.3-12.5 16.9-28.9 12.9-45.4-4.3-17.5-16.8-30.7-34.3-36.1-6.2-2-9.5-2-220.5-2l-214.1.1-6.5 2.2zM43.4 207c-20.6 3-36.6 17.5-41.9 37.7-6.5 24.7 9.2 51.1 35 59 5.7 1.7 15.2 1.8 219.5 1.8s213.8-.1 219.5-1.8c25.8-7.9 41.5-34.3 35-59-4.5-17.3-17-30.5-34.5-36.4-5.3-1.7-14.3-1.8-216.5-1.9-116-.1-213.3.2-216.1.6zM42 388.7c-10.2 1.7-19.7 6.8-27.5 14.8C2.2 416-2.4 432.4 1.6 448.9c4.3 17.5 16.8 30.7 34.3 36.1 6.2 2 9.5 2 220.1 2s213.9 0 220.1-2c17.5-5.4 30-18.6 34.3-36.1 6-24.5-7.6-48.7-33-58.5-4.7-1.8-12-1.9-218.9-2-117.7-.1-215.1.1-216.5.3z"></path>
  </symbol>
  <symbol version="1.0" xmlns="http://www.w3.org/2000/svg" viewBox="0 0 310 163" id="icon-angle-down">
    <path d="M81.1 41.4c-2.8 3-5.1 6.3-5.1 7.3s16.6 18.3 38.2 40C144.4 119 153 127 155 127s10.6-8 40.8-38.3c21.6-21.7 38.2-39 38.2-40 0-3-9.9-12.7-12.9-12.7-2.1 0-9 6.4-34.3 31.7L155 99.5l-31.8-31.8C97.9 42.4 91 36 88.9 36c-1.9 0-4.1 1.6-7.8 5.4z"></path>
  </symbol>
    <symbol version="1.0" xmlns="http://www.w3.org/2000/svg" viewBox="0 0 512 512" id="icon-camera">
    <path d="M188.5 84.7c-18 7.2-29.8 27.6-33.7 58.6l-1.2 9.6-40.5.3-40.6.3-7.7 2.7c-17.6 5.9-29 17.7-32.8 33.8-1.1 4.3-1.3 26.7-1.3 105 0 97.7 0 99.6 2 105.7 3.9 11.7 13.1 21.1 25 25.6l5.8 2.2 187 .3c139.7.2 188.4 0 192.5-.8 20.4-4.4 35.4-19.2 37.9-37.7 1.3-9.4 1.3-189 0-197.2-2.7-17.2-12.5-30.4-27.7-37.4-4.5-2.1-6.1-2.2-41.8-2.5l-37.2-.3-.7-4.7c-5.1-35.8-19.7-57.9-42-63.8-3.9-1.1-19.2-1.4-72-1.3-59 0-67.5.2-71 1.6zm91 99.1c28.7 7.9 51 24.5 65.4 48.7 9.3 15.6 13.9 31.1 14.8 49.5 2.5 51.7-33 97.5-84.2 108.5-10.9 2.4-32.3 2.4-43 .1-30.7-6.7-56.8-26.2-71.9-53.8-5.1-9.2-10.3-25.8-11.7-37.2-6.6-53.6 28.4-103.6 81.3-116.1 9.3-2.2 11.9-2.4 26.3-2.1 11.7.3 17.9 1 23 2.4zm131.6 27.4c10 5.6 12.6 18.3 5.8 27.8-8.9 12.2-27.5 9.9-33.4-4.2-7-16.9 11.5-32.7 27.6-23.6z"></path>
    <path d="M242 217.6c-12.5 2.4-26.1 9.4-35.2 17.9-9.9 9.4-16.6 20.1-20.4 33-2.4 8.3-2.5 26.6-.1 35.5 7.7 28.2 29.9 47.8 59.1 52.1 20.8 3.1 44.5-5.6 59.5-21.8 13.3-14.4 19.8-32.1 18.8-50.8-.7-11.3-2.4-18-7.3-27.8-8.3-16.9-23.8-30.2-41.7-35.9-6.1-1.9-26.8-3.3-32.7-2.2z"></path>
  </symbol>
     <symbol version="1.0" xmlns="http://www.w3.org/2000/svg" viewBox="0 0 512 512" id="icon-star-full">
    <path d="M215.2 92.3l-39.4 79.3-87.9 13.9-88 13.9 6.8 6.7c3.7 3.7 32.2 31.5 63.3 62 31.1 30.4 56.6 56 56.7 56.8.1.9-6 40.3-13.5 87.6-7.6 47.3-13.5 86.1-13.1 86.3.3.1 35.6-18 78.2-40.3 42.7-22.3 78.2-40.5 78.8-40.5.6 0 36.4 18 79.6 40.1 43.2 22 78.6 39.9 78.7 39.7.2-.2-6.4-39.7-14.6-87.8L386 322.5l62.7-62.7c56.1-56.1 62.4-62.7 60.2-63.2-1.3-.4-40.6-6.2-87.4-13.1-58.2-8.6-85.3-13-86-13.9-.5-.8-18.8-36.3-40.5-79S255.3 13 255 13c-.3.1-18.2 35.7-39.8 79.3z"></path>
  </symbol>
  <symbol version="1.0" xmlns="http://www.w3.org/2000/svg" viewBox="0 0 980 980" id="icon-star-empty">
    <path d="M475.6 1.6c-16.9 3.7-32.4 14.3-41.9 28.8C431.8 33.2 405 89.7 374 156c-30.9 66.3-57.2 121.5-58.2 122.7-1.1 1.2-3.2 2.6-4.6 3.2-1.5.6-60.1 9.9-130.3 20.6-70.1 10.7-130 20.2-133 21.1-13.9 4.1-29.1 15.6-36.6 27.7C-2.3 373-3.5 396 7.6 418.8c5.3 10.9-5.5-.7 113.9 122 45.1 46.4 82.9 86 83.9 87.9l2 3.6-22 134.6c-20 123-21.9 135.6-21.9 146.6.1 10.8.4 12.9 3.1 20.6 8.9 25.1 29 41.2 56.3 44.9 9.4 1.3 19.9.2 29.7-3 3.3-1.1 19.7-9.6 36.5-18.9 16.7-9.2 67.9-37.6 113.7-63 71.3-39.5 83.8-46.1 87.2-46.1 3.4 0 9.4 3 36.3 17.9C667.2 944 716.2 971.1 720.7 973.4c6.9 3.4 20.2 6.6 28 6.6 38.6 0 70-32.3 68.1-70.3-.3-5.1-10.3-69.5-22.3-143.3l-21.8-134.1 1.9-3.6c1-2 38.6-41.3 83.4-87.3 115.9-119.1 109.2-111.9 114.5-122.8 9.9-20.3 9.9-40-.1-60.5-7.9-16-22.9-29-39.4-34.2-3.2-1-63.4-10.6-133.7-21.4-70.3-10.7-129.2-20.2-131-21-1.8-.8-3.9-2.5-4.8-3.9-.9-1.4-26.1-54.6-55.9-118.3C577.7 95.6 551.8 40.6 550 37 536.2 9.7 505.7-4.8 475.6 1.6zm20.8 54.6c1.4.6 3.2 2.1 4 3.2.7 1.2 25.7 54.3 55.6 118.1 29.8 63.8 56.1 119.6 58.3 124 7.6 14.8 23 27.6 39.2 32.9 4.6 1.4 38.8 6.8 204.5 32.2 30.5 4.6 56.9 8.9 58.6 9.4 5.3 1.8 7.7 5.3 8.2 12l.4 5.9-10.3 10.8c-5.7 5.9-48.2 49.7-94.4 97.2s-85.7 88.7-87.9 91.5c-9.5 12.5-14.1 27.4-13.4 43.4.3 5.8 9.2 63.1 22.3 143.4l21.7 133.6-1.8 3.8c-2.3 4.6-7.2 7.7-12.3 7.6-3-.1-23.9-11.3-112.2-60.3-59.6-33.1-111.8-61.8-115.9-63.9-10.9-5.5-18.6-7.4-31-7.4-12.1 0-20 1.8-29.9 6.9-3.6 1.8-55.4 30.3-115 63.4-59.6 33.1-109.8 60.5-111.5 60.9-6.7 1.8-14.5-2.7-16.2-9.3-.3-1.4 8.9-61 21.5-138.2 15.8-96.9 22.1-138.1 22.1-143.9 0-14.1-4.9-28.5-13.6-40-2.2-2.8-46-48.4-97.4-101.2-65.5-67.4-93.9-97.1-94.7-99.5-2.3-6.7 1.5-14.5 8.1-16.6 1.7-.6 60.5-9.8 130.7-20.6 74.3-11.4 130-20.3 133.3-21.5 16.2-5.5 30.8-17.9 38.3-32.5 2.2-4.4 27-57.1 55.1-117 28-60 52.8-112.8 55-117.5 2.7-5.6 5-9.1 6.9-10.2 3.2-2 10.1-2.3 13.7-.6z"></path>
  </symbol>
    <symbol version="1.0" xmlns="http://www.w3.org/2000/svg" viewBox="0 0 512 512" id="icon-envelope">
    <path d="M0 256v170h512V86H0v170zm464.8-144.1C464.3 113.4 257.1 295 256 295c-1.1 0-208.3-181.6-208.8-183.1-.2-.5 84.7-.9 208.8-.9 124.1 0 209 .4 208.8.9zM99.9 192.3c39.4 34.6 71.6 63.2 71.6 63.6 0 .4-31.9 28.8-71 63.1-39 34.2-72 63.2-73.2 64.3l-2.3 2V256.1c0-120.9.1-129.3 1.7-128 .9.8 33.9 29.7 73.2 64.2zm386.9 128.2l-.3 64.4-73-64.1c-40.1-35.3-73-64.5-73-64.9 0-.4 32.9-29.6 73-64.8l73-64.1.3 64.5c.1 35.5.1 93.5 0 129zM223.7 301c17.5 15.4 32 28 32.3 28 .3 0 14.8-12.6 32.3-28 17.6-15.4 32-28 32.2-28 .8 0 144 126.1 144.3 127 .2.7-76 1-208.8 1s-209-.3-208.8-1c.3-.9 143.5-127 144.3-127 .2 0 14.6 12.6 32.2 28z"></path>
  </symbol>
  <symbol version="1.0" xmlns="http://www.w3.org/2000/svg" viewBox="0 0 225 225" id="icon-location">
    <path d="M100.5 1c-14.1 2.3-27.7 8.3-39 17.3-28.4 22.8-38 63.3-22.8 96.8 3.3 7.2 55.2 97.6 59 102.7 6.1 8.1 19.7 9.4 27.3 2.4 3.2-2.9 55-91.7 60.7-104 5.7-12.2 7.6-21 7.6-34.7-.1-14.7-2.3-24.1-8.8-37-10.1-20.2-29.6-36-51.2-41.5-9.1-2.4-24.4-3.3-32.8-2zm22.1 46.7c6.9 2.3 15.5 11 17.9 18.2 2.3 6.9 1.7 16.9-1.4 22.8-11.1 21.8-42.1 21.8-53.2 0-3.1-5.9-3.7-15.9-1.4-22.8 2.3-6.9 11-15.8 17.5-18.2 6-2.1 14.5-2.1 20.6 0z"></path>
  </symbol>
  <symbol version="1.0" xmlns="http://www.w3.org/2000/svg" viewBox="0 0 900 900" id="icon-phone">
    <path d="M163.4 1.4C142.3 6.2 116.2 24.7 90.2 53 57 89.3 30.6 130.3 14.6 170.8 1.2 204.6-2.7 235.5 2.5 265.3 17.7 351.1 94.6 477.7 208.4 604c17.1 19 68.1 70 87.1 87.1 107 96.1 212.3 165.5 295.5 194.6 25.4 8.9 52 14.3 70.5 14.3 53 0 125.6-35.3 185.5-90.2 25-22.9 42.5-46.3 49.4-65.8 2.6-7.3 3-9.9 3-18.5-.1-14.1-3.2-21.9-15-38.2-26-35.3-103.5-94.5-173.9-132.6-26.1-14.1-48-22.7-63.5-24.9-15.4-2.2-30.8 3.3-43.7 15.5-10.8 10.3-19.3 24-30.1 48.2-9.5 21.5-15.2 33.5-17.5 37.3L553 635l-6.3-2.4c-37.3-14-109.5-65.5-158.1-112.6-33.5-32.5-78.2-89.1-102.5-129.9-7.6-12.6-16.7-30.7-19.2-37.9l-1.8-5.2 4.2-2.7c3.7-2.3 15.8-8 37.2-17.5 24.2-10.8 37.9-19.3 48.2-30.1 15-15.9 19.2-33.2 13.1-55-14.4-52.4-88.2-164.6-140.3-213.4C202.7 5 183.3-3.1 163.4 1.4zm20.3 59.1c40.2 32.2 118.5 146.7 132.8 194.3 1.3 4.1 1.2 4.4-1.3 6.8-4.7 4.4-16.1 10.5-36.7 19.7-22.1 9.7-36.9 17.3-43 22-28.3 21.6-30.7 45.1-8.8 89C251.9 443 311.8 521.2 359 565.1c68.5 63.9 152.4 118.1 189.7 122.8 17.8 2.2 33.1-4.4 45.4-19.6 7.4-9.3 12.6-18.8 24.2-45 13.4-29.9 19.5-40.3 23.7-40.3 3.9 0 20.1 6.6 35.5 14.5 60.9 31.2 140.2 89.7 163.6 120.8l5.9 7.9-3 5.6c-5.1 9.5-12.8 19.1-26 32.2-47.7 47.4-114.7 82.9-157 83-35.6.1-100.7-27.3-169.7-71.4-99.7-63.7-201.6-154.7-282.4-252.1-88-106.2-146.6-209.8-155-274-2.7-21.1 3.2-46.2 18.1-77 11.9-24.4 27.5-48.3 46.1-70.5 9.6-11.5 27.4-29.4 35.9-36.2 6.6-5.3 17.2-11.7 19.5-11.7 1.2-.1 5.7 2.8 10.2 6.4z"></path>
  </symbol>
    <symbol version="1.0" xmlns="http://www.w3.org/2000/svg" viewBox="0 0 225 225" id="icon-paperplane">
    <path d="M110 60.5C50.9 72.8 2.2 82.9 1.8 83c-1.5 0-2 4.3-.7 5.5.8.7 14.9 8.4 31.4 17 16.5 8.7 30.5 16.3 31.1 16.9.6.6 3.5 14.6 6.3 31.1 2.9 16.5 5.6 30.7 6 31.5.5.8 1.6 1.7 2.5 1.8 1 .2 11.2-5.9 23.2-13.9l21.5-14.3 3.2 1.9c1.8 1 11.7 7.4 22 14.2 10.3 6.8 19.7 12.3 20.8 12.3 2.5 0 .2 5.9 30.4-76.2 15-40.6 25.3-69.9 24.9-71-.4-1.3-1.5-1.8-3.7-1.7-1.8 0-51.6 10.1-110.7 22.4zm79.5-7.2c-8.5 4.9-120.9 62-121.9 62-1.3 0-50.7-26-52-27.4-.6-.6-.3-.9 1-.9 1 0 40.6-8.1 87.9-17.9 47.3-9.9 86.7-18 87.5-18 .8 0-.3 1-2.5 2.2zm.7 62c-12.6 34-23.2 61.9-23.6 61.9-1.3.2-65.5-41.6-65.3-42.5.3-1.2 111.2-82.6 111.4-81.9.1.4-10 28.5-22.5 62.5zm-53.8-16.2c-24.2 17.7-44.4 32.8-45 33.5-.6.7-3.2 8.5-5.9 17.4-2.7 8.8-5.2 15.7-5.6 15.3-1.2-1.4-8-42.6-7.2-43.4 1-1 105.5-54.8 106.7-54.8.4-.1-18.9 14.4-43 32zm-27.1 50.1c3.7 2.4 6.7 4.5 6.7 4.9 0 .8-29.1 20.1-29.6 19.6-.3-.2 7.5-27.2 9.1-31.5.4-1.1 1.2-.9 3.8.7 1.7 1.2 6.2 4 10 6.3z"></path>
  </symbol>
    
</svg>